<?xml version="1.0" standalone="no"?>
<!DOCTYPE svg PUBLIC "-//W3C//DTD SVG 20010904//EN"
 "http://www.w3.org/TR/2001/REC-SVG-20010904/DTD/svg10.dtd">
<svg version="1.0" xmlns="http://www.w3.org/2000/svg"
 width="1280.000000pt" height="640.000000pt" viewBox="0 0 1280.000000 640.000000"
 preserveAspectRatio="xMidYMid meet">
<metadata>
Created by potrace 1.15, written by Peter Selinger 2001-2017
</metadata>
<g transform="translate(0.000000,640.000000) scale(0.100000,-0.100000)"
fill="#e91e63" stroke="none">
<path d="M73 5559 c-17 -5 -41 -22 -52 -38 -20 -27 -21 -43 -21 -256 l0 -227
34 -34 34 -34 296 0 296 0 32 29 33 29 3 224 c3 190 1 227 -13 253 -31 59 -35
60 -335 62 -151 1 -289 -3 -307 -8z"/>
<path d="M825 5556 c-68 -30 -70 -37 -73 -265 -4 -229 2 -268 47 -300 28 -20
43 -21 316 -21 297 0 314 2 347 44 16 18 18 48 18 252 0 218 -1 233 -20 257
-12 15 -38 31 -58 37 -57 15 -540 12 -577 -4z"/>
<path d="M1583 5559 c-17 -5 -41 -21 -52 -35 -20 -25 -21 -40 -21 -251 0 -244
5 -268 57 -292 15 -7 127 -11 313 -11 l290 0 32 29 33 29 3 221 c3 184 1 225
-12 253 -30 62 -33 63 -336 65 -151 1 -289 -3 -307 -8z"/>
<path d="M2350 5563 c-84 -27 -90 -48 -90 -292 0 -217 7 -253 51 -285 20 -14
61 -16 311 -16 185 0 296 4 311 11 52 24 57 48 57 292 0 211 -1 226 -20 250
-12 15 -38 31 -58 37 -37 10 -532 13 -562 3z"/>
<path d="M3093 5559 c-17 -5 -41 -21 -52 -35 -20 -25 -21 -39 -21 -258 0 -204
2 -234 18 -252 33 -42 50 -44 347 -44 273 0 288 1 316 21 45 32 51 71 47 300
-4 292 12 279 -365 278 -142 0 -272 -5 -290 -10z"/>
<path d="M3853 5563 c-27 -5 -72 -49 -79 -78 -3 -11 -4 -119 -2 -239 l3 -218
33 -29 32 -29 296 0 296 0 34 34 34 34 0 224 c0 203 -2 226 -20 255 -13 21
-31 35 -57 42 -36 10 -521 14 -570 4z"/>
<path d="M4603 5559 c-17 -5 -41 -21 -52 -35 -20 -25 -21 -39 -21 -258 0 -204
2 -234 18 -252 33 -42 50 -44 350 -44 l290 0 31 29 31 29 0 239 c0 323 23 303
-358 302 -141 0 -271 -5 -289 -10z"/>
<path d="M5365 5563 c-34 -9 -63 -33 -75 -62 -7 -19 -10 -98 -8 -250 l3 -223
33 -29 32 -29 296 0 296 0 34 34 34 34 0 221 c0 235 -4 258 -49 288 -23 16
-56 18 -301 20 -151 1 -284 -1 -295 -4z"/>
<path d="M6113 5559 c-17 -5 -41 -21 -52 -35 -20 -25 -21 -40 -21 -256 0 -138
4 -237 10 -249 25 -45 52 -49 350 -49 298 0 325 4 350 49 6 12 10 111 10 249
0 216 -1 231 -20 255 -12 15 -38 31 -58 37 -46 12 -525 12 -569 -1z"/>
<path d="M6880 5564 c-87 -31 -90 -41 -90 -305 l0 -221 34 -34 34 -34 296 0
296 0 32 29 33 29 3 223 c3 240 -1 265 -47 296 -23 16 -55 18 -301 20 -151 1
-282 0 -290 -3z"/>
<path d="M7620 5559 c-14 -6 -35 -20 -47 -31 -23 -21 -23 -26 -23 -261 l0
-239 31 -29 31 -29 290 0 c300 0 317 2 350 44 16 18 18 48 18 252 0 218 -1
233 -20 257 -12 15 -38 31 -58 37 -48 13 -538 12 -572 -1z"/>
<path d="M8372 5559 c-20 -6 -40 -22 -52 -42 -18 -29 -20 -51 -20 -255 l0
-224 34 -34 34 -34 296 0 296 0 32 29 33 29 3 224 c3 190 1 227 -13 253 -31
59 -35 60 -335 62 -156 1 -289 -2 -308 -8z"/>
<path d="M9125 5556 c-68 -30 -70 -37 -73 -265 -4 -229 2 -268 47 -300 28 -20
43 -21 316 -21 297 0 314 2 347 44 16 18 18 48 18 252 0 218 -1 233 -20 257
-12 15 -38 31 -58 37 -57 15 -540 12 -577 -4z"/>
<path d="M9883 5559 c-17 -5 -41 -21 -52 -35 -20 -25 -21 -40 -21 -251 0 -244
5 -268 57 -292 15 -7 126 -11 311 -11 319 0 321 0 348 66 21 50 20 424 -1 468
-29 60 -33 61 -335 63 -151 1 -289 -3 -307 -8z"/>
<path d="M10643 5563 c-32 -6 -72 -51 -79 -87 -3 -18 -4 -126 -2 -240 l3 -208
33 -29 32 -29 290 0 c186 0 298 4 313 11 52 24 57 48 57 292 0 211 -1 226 -20
250 -12 15 -38 31 -58 37 -35 9 -521 12 -569 3z"/>
<path d="M11393 5559 c-17 -5 -41 -21 -52 -35 -20 -25 -21 -39 -21 -258 0
-204 2 -234 18 -252 33 -42 50 -44 347 -44 273 0 288 1 316 21 45 32 51 71 47
300 -4 292 12 279 -365 278 -142 0 -272 -5 -290 -10z"/>
<path d="M12153 5563 c-27 -5 -72 -49 -79 -78 -3 -11 -4 -119 -2 -239 l3 -218
33 -29 32 -29 296 0 296 0 34 34 34 34 0 227 c0 212 -1 229 -20 256 -12 16
-36 33 -58 39 -35 9 -521 12 -569 3z"/>
<path d="M34 4876 l-34 -34 0 -314 c0 -348 0 -346 66 -374 48 -20 590 -20 638
0 66 28 66 26 66 374 l0 314 -34 34 -34 34 -317 0 -317 0 -34 -34z"/>
<path d="M865 4901 c-11 -5 -29 -19 -40 -31 -19 -21 -20 -38 -23 -334 -2 -343
-2 -348 58 -379 32 -16 65 -17 343 -15 l309 3 29 33 29 32 0 316 0 316 -34 34
-34 34 -308 -1 c-170 0 -318 -4 -329 -8z"/>
<path d="M1652 4890 c-18 -11 -37 -32 -42 -46 -6 -14 -10 -153 -10 -322 0
-277 1 -299 20 -329 31 -51 60 -55 392 -51 l297 3 30 29 31 30 0 320 c0 289
-2 323 -18 342 -34 42 -49 44 -364 44 -285 0 -305 -1 -336 -20z"/>
<path d="M2454 4891 c-17 -11 -36 -34 -43 -52 -18 -52 -15 -590 4 -635 25 -60
46 -64 374 -64 159 0 301 4 314 9 14 6 35 20 46 32 20 22 21 32 21 343 0 289
-2 323 -18 342 -34 42 -49 44 -364 44 -280 0 -305 -2 -334 -19z"/>
<path d="M3253 4890 c-50 -30 -55 -64 -51 -388 3 -318 5 -329 70 -351 42 -15
594 -15 636 0 61 21 62 26 62 374 0 198 -4 324 -10 336 -25 46 -50 49 -372 49
-283 0 -305 -1 -335 -20z"/>
<path d="M4065 4898 c-55 -30 -55 -28 -55 -374 0 -311 1 -321 21 -343 11 -12
32 -26 46 -32 13 -5 155 -9 314 -9 328 0 349 4 374 64 21 51 22 590 1 641 -27
63 -40 65 -378 65 -201 -1 -310 -4 -323 -12z"/>
<path d="M4865 4898 c-55 -30 -55 -28 -55 -374 l0 -320 31 -30 30 -29 297 -3
c332 -4 361 0 392 51 19 30 20 52 20 329 0 169 -4 308 -10 322 -5 14 -24 35
-42 46 -31 19 -51 20 -338 20 -203 -1 -312 -4 -325 -12z"/>
<path d="M5644 4876 l-34 -34 0 -316 0 -316 29 -32 29 -33 309 -3 c278 -2 311
-1 343 15 19 10 40 29 47 43 16 31 18 605 3 644 -5 14 -24 35 -42 46 -31 19
-51 20 -341 20 l-309 0 -34 -34z"/>
<path d="M6444 4876 l-34 -34 0 -314 c0 -348 0 -346 66 -374 48 -20 590 -20
638 0 66 28 66 26 66 374 l0 314 -34 34 -34 34 -317 0 -317 0 -34 -34z"/>
<path d="M7274 4900 c-12 -4 -31 -21 -43 -36 -20 -26 -21 -35 -21 -338 0 -346
0 -344 66 -372 50 -21 603 -20 644 1 60 31 60 30 60 373 l0 314 -34 34 -34 34
-308 -1 c-170 0 -319 -4 -330 -9z"/>
<path d="M8062 4890 c-18 -11 -37 -32 -42 -46 -6 -14 -10 -153 -10 -322 0
-277 1 -299 20 -329 31 -51 60 -55 393 -51 l299 3 29 33 29 32 0 310 c0 201
-4 317 -11 333 -25 55 -41 57 -371 57 -285 0 -305 -1 -336 -20z"/>
<path d="M8868 4894 c-56 -30 -58 -46 -58 -371 0 -278 1 -300 20 -330 31 -51
60 -55 392 -51 l297 3 30 29 31 30 0 320 c0 289 -2 323 -18 342 -34 42 -49 44
-364 44 -248 -1 -308 -3 -330 -16z"/>
<path d="M9664 4891 c-17 -11 -36 -34 -43 -52 -7 -21 -11 -131 -11 -316 0
-246 2 -290 17 -320 28 -60 46 -63 372 -63 159 0 301 4 314 9 14 6 35 20 46
32 20 22 21 32 21 343 0 289 -2 323 -18 342 -34 42 -49 44 -364 44 -280 0
-305 -2 -334 -19z"/>
<path d="M10475 4899 c-55 -31 -55 -29 -55 -375 0 -311 1 -321 21 -343 11 -12
32 -26 46 -32 14 -5 311 -9 721 -9 644 0 700 1 732 18 60 30 60 35 58 379 l-3
313 -28 27 -27 28 -723 2 c-515 2 -728 -1 -742 -8z"/>
<path d="M12064 4876 l-34 -34 0 -314 c0 -348 0 -346 66 -374 48 -20 590 -20
638 0 66 28 66 26 66 374 l0 314 -34 34 -34 34 -317 0 -317 0 -34 -34z"/>
<path d="M51 4066 c-48 -27 -50 -40 -51 -364 0 -330 2 -344 56 -372 39 -22
898 -22 937 -1 55 29 58 52 55 387 l-3 306 -33 29 -32 29 -453 0 c-356 -1
-457 -4 -476 -14z"/>
<path d="M1091 4054 l-31 -26 0 -327 0 -328 23 -21 c13 -13 39 -27 58 -32 45
-13 554 -13 601 0 20 6 46 22 58 37 19 25 20 38 20 345 l0 320 -29 29 -29 29
-320 0 -320 0 -31 -26z"/>
<path d="M1889 4051 l-29 -29 0 -324 0 -325 23 -21 c13 -13 39 -27 58 -32 44
-13 554 -13 600 0 19 6 46 22 60 36 l24 26 0 320 0 320 -33 29 -32 29 -321 0
-321 0 -29 -29z"/>
<path d="M2691 4051 l-31 -29 0 -322 0 -322 28 -28 c39 -39 71 -42 387 -38
298 3 312 6 340 64 14 29 15 77 13 340 l-3 306 -33 29 -32 29 -319 0 -319 0
-31 -29z"/>
<path d="M3491 4049 l-31 -31 0 -320 0 -320 28 -28 c39 -39 71 -42 392 -38
297 3 302 4 334 59 14 23 16 69 16 334 l0 307 -34 34 -34 34 -320 0 -320 0
-31 -31z"/>
<path d="M4304 4062 c-42 -34 -44 -49 -44 -372 l0 -312 28 -28 c39 -39 71 -42
392 -38 243 3 278 5 301 21 47 31 49 48 49 368 0 327 -3 343 -57 368 -16 7
-132 11 -336 11 -281 0 -314 -2 -333 -18z"/>
<path d="M5114 4069 c-11 -6 -28 -23 -37 -39 -15 -25 -17 -66 -17 -329 0 -320
2 -337 49 -368 23 -16 58 -18 301 -21 324 -4 349 -1 390 39 l30 31 0 308 c0
218 -4 317 -12 335 -24 53 -41 55 -375 54 -185 0 -316 -4 -329 -10z"/>
<path d="M5894 4046 l-34 -34 0 -306 c0 -325 2 -342 49 -373 23 -16 58 -18
301 -21 321 -4 353 -1 392 38 l28 28 0 320 0 320 -31 31 -31 31 -320 0 -320 0
-34 -34z"/>
<path d="M6698 4051 l-33 -29 -3 -306 c-2 -259 0 -311 13 -339 29 -61 33 -62
335 -65 321 -4 353 -1 392 38 l28 28 0 322 0 322 -31 29 -31 29 -319 0 -319 0
-32 -29z"/>
<path d="M7498 4051 l-33 -29 0 -320 0 -320 24 -26 c14 -14 41 -30 60 -36 48
-13 555 -13 603 0 20 6 46 22 58 37 19 25 20 38 20 345 l0 320 -29 29 -29 29
-321 0 -321 0 -32 -29z"/>
<path d="M8299 4051 l-29 -29 0 -324 0 -325 23 -21 c13 -13 39 -27 58 -32 44
-13 554 -13 600 0 19 6 46 22 60 36 l24 26 3 276 c4 323 1 355 -38 394 l-28
28 -322 0 -322 0 -29 -29z"/>
<path d="M9099 4051 l-29 -29 0 -320 c0 -307 1 -320 20 -345 12 -15 38 -31 58
-37 48 -13 555 -13 603 0 19 6 46 22 60 36 l24 26 0 320 0 320 -33 29 -32 29
-321 0 -321 0 -29 -29z"/>
<path d="M9901 4051 l-31 -29 0 -322 0 -322 28 -28 c39 -39 71 -42 392 -38
302 3 306 4 335 65 13 28 15 80 13 339 l-3 306 -33 29 -32 29 -319 0 -319 0
-31 -29z"/>
<path d="M10776 4061 c-54 -36 -55 -42 -55 -356 -1 -312 1 -321 52 -359 25
-19 45 -21 173 -24 l144 -3 0 -395 0 -394 29 -32 29 -33 369 -6 c408 -7 423
-6 460 50 l23 34 0 719 c0 789 2 765 -59 801 -26 15 -79 17 -583 17 -530 0
-554 -1 -582 -19z"/>
<path d="M12081 4066 c-49 -27 -50 -40 -51 -373 l0 -311 30 -31 c41 -40 66
-43 390 -39 300 3 312 6 338 64 17 36 17 613 0 649 -24 53 -41 55 -375 55
-236 -1 -314 -4 -332 -14z"/>
<path d="M73 3249 c-17 -5 -41 -22 -52 -38 -20 -28 -21 -42 -21 -336 0 -333 2
-349 57 -374 34 -16 1196 -15 1226 0 57 29 57 27 57 370 0 304 -1 317 -20 342
-12 15 -38 31 -58 37 -47 13 -1144 12 -1189 -1z"/>
<path d="M1513 3253 c-27 -5 -72 -49 -79 -77 -3 -12 -4 -157 -2 -324 l3 -304
33 -29 32 -29 319 0 319 0 31 31 31 31 0 317 c0 276 -2 319 -16 340 -33 47
-62 51 -366 50 -156 -1 -293 -4 -305 -6z"/>
<path d="M2320 3253 c-88 -28 -90 -38 -90 -377 0 -307 4 -337 51 -370 21 -14
64 -16 340 -16 l317 0 31 29 31 29 0 324 c0 324 0 325 -22 346 -13 11 -36 25
-51 31 -28 11 -576 15 -607 4z"/>
<path d="M3105 3246 c-66 -30 -64 -20 -65 -369 -1 -195 3 -324 9 -335 27 -50
39 -52 374 -52 302 0 315 1 340 21 44 34 49 71 45 384 -3 307 -4 314 -52 346
-31 20 -607 25 -651 5z"/>
<path d="M3904 3246 c-64 -29 -64 -27 -64 -379 l0 -319 31 -29 31 -29 319 0
319 0 32 29 33 29 3 306 c3 330 0 353 -50 386 -33 22 -607 27 -654 6z"/>
<path d="M4713 3249 c-17 -5 -41 -21 -52 -35 -20 -26 -21 -38 -21 -343 0 -284
2 -318 18 -337 34 -42 49 -44 371 -44 l311 0 32 29 33 29 3 308 c3 330 1 349
-47 381 -23 16 -55 18 -321 20 -163 1 -309 -2 -327 -8z"/>
<path d="M5513 3249 c-17 -5 -41 -21 -52 -35 -20 -26 -21 -39 -21 -336 0 -335
2 -352 55 -376 18 -8 117 -12 336 -12 l311 0 34 34 34 34 0 309 c0 287 -1 310
-20 340 -13 21 -31 35 -57 42 -47 13 -575 13 -620 0z"/>
<path d="M6312 3249 c-20 -6 -40 -22 -52 -42 -19 -30 -20 -52 -20 -335 0 -330
2 -346 57 -371 33 -15 623 -15 656 0 55 25 57 40 57 377 0 296 -1 310 -20 335
-12 15 -38 31 -58 37 -47 13 -575 12 -620 -1z"/>
<path d="M7112 3249 c-20 -6 -40 -22 -52 -42 -19 -30 -20 -52 -20 -340 l0
-309 34 -34 34 -34 312 0 c323 0 338 2 372 44 16 19 18 53 18 337 0 304 -1
317 -20 342 -12 15 -38 31 -58 37 -47 13 -575 12 -620 -1z"/>
<path d="M7925 3253 c-33 -9 -63 -33 -74 -62 -8 -19 -11 -121 -9 -335 l3 -308
33 -29 32 -29 311 0 c322 0 337 2 371 44 16 19 18 53 18 336 0 276 -2 318 -16
339 -33 47 -62 51 -366 50 -156 -1 -292 -4 -303 -6z"/>
<path d="M8723 3253 c-31 -6 -72 -50 -78 -87 -4 -17 -5 -163 -3 -324 l3 -294
33 -29 32 -29 319 0 319 0 31 29 31 29 0 324 c0 324 0 325 -22 346 -43 39 -69
42 -361 41 -155 -1 -292 -4 -304 -6z"/>
<path d="M9524 3253 c-12 -2 -34 -18 -50 -34 l-29 -30 -3 -277 c-4 -328 -1
-355 40 -394 l30 -28 318 0 318 0 31 29 31 29 0 324 0 324 -31 30 -30 29 -302
1 c-166 1 -312 0 -323 -3z"/>
<path d="M10320 3249 c-14 -6 -35 -20 -47 -31 -23 -21 -23 -22 -23 -346 l0
-324 31 -29 31 -29 319 0 319 0 32 29 33 29 3 306 c3 260 1 311 -12 338 -30
63 -31 63 -361 65 -187 1 -309 -2 -325 -8z"/>
<path d="M12103 3249 c-17 -5 -41 -21 -52 -35 -20 -26 -21 -39 -21 -336 0
-337 2 -352 57 -377 16 -7 131 -11 328 -11 197 0 312 4 328 11 55 25 57 41 57
374 0 293 -1 308 -20 336 -12 16 -36 33 -58 39 -46 12 -574 12 -619 -1z"/>
<path d="M64 2420 c-12 -4 -31 -21 -43 -36 -20 -26 -21 -35 -21 -338 0 -341 0
-340 60 -371 24 -13 90 -15 393 -15 234 0 375 4 395 11 61 21 62 26 62 376 0
345 0 343 -57 372 -26 13 -756 15 -789 1z"/>
<path d="M1002 2410 c-18 -11 -37 -32 -42 -46 -6 -14 -10 -153 -10 -320 0
-325 2 -339 60 -369 26 -14 76 -15 341 -13 l311 3 29 33 29 32 0 316 0 316
-34 34 -34 34 -308 0 c-291 0 -311 -1 -342 -20z"/>
<path d="M1824 2420 c-12 -4 -31 -21 -43 -36 -20 -26 -21 -35 -21 -339 0 -295
1 -314 20 -337 36 -47 55 -49 384 -46 l308 3 29 33 29 32 0 315 0 315 -29 32
-29 33 -314 2 c-172 1 -323 -2 -334 -7z"/>
<path d="M2634 2420 c-12 -4 -31 -21 -43 -36 -20 -26 -21 -35 -21 -340 l0
-314 29 -32 29 -33 314 -3 c299 -2 314 -1 346 18 18 11 37 32 42 46 6 14 10
152 10 319 0 167 -4 305 -10 319 -5 14 -24 35 -42 46 -31 19 -50 20 -333 19
-165 0 -310 -4 -321 -9z"/>
<path d="M3435 2418 c-55 -30 -55 -28 -55 -374 0 -311 1 -321 21 -343 11 -12
32 -26 46 -32 13 -5 155 -9 314 -9 320 0 345 4 373 59 23 44 24 607 1 651 -30
58 -44 60 -377 60 -201 -1 -310 -4 -323 -12z"/>
<path d="M4233 2410 c-50 -30 -55 -64 -51 -388 3 -318 5 -329 70 -351 42 -15
594 -15 636 0 61 21 62 26 62 376 0 286 -2 320 -18 339 -34 42 -49 44 -364 44
-283 0 -305 -1 -335 -20z"/>
<path d="M5048 2414 c-56 -30 -58 -46 -58 -371 0 -278 1 -300 20 -330 31 -51
60 -55 392 -51 l297 3 30 29 31 30 0 320 c-1 340 0 335 -50 369 -22 15 -58 17
-330 17 -250 -1 -310 -3 -332 -16z"/>
<path d="M5852 2410 c-18 -11 -37 -32 -42 -46 -6 -14 -10 -152 -10 -319 0
-167 4 -305 10 -319 5 -14 24 -35 42 -46 32 -19 47 -20 346 -18 l314 3 29 33
29 32 0 315 0 315 -29 32 -29 33 -314 3 c-299 2 -314 1 -346 -18z"/>
<path d="M6674 2420 c-12 -4 -31 -21 -43 -36 -20 -26 -21 -35 -21 -340 l0
-314 29 -32 29 -33 308 -3 c329 -3 348 -1 384 46 19 23 20 42 20 336 0 341 0
340 -60 371 -24 12 -81 15 -327 14 -164 0 -308 -4 -319 -9z"/>
<path d="M7470 2413 c-50 -34 -49 -29 -50 -369 l0 -320 31 -30 30 -29 297 -3
c332 -4 361 0 392 51 19 30 20 52 20 330 0 247 -3 303 -15 327 -30 58 -44 60
-377 60 -270 0 -306 -2 -328 -17z"/>
<path d="M8285 2418 c-55 -30 -55 -28 -55 -371 0 -350 1 -355 62 -376 19 -7
140 -11 320 -11 327 0 348 4 373 64 21 51 22 590 1 641 -27 63 -40 65 -378 65
-201 -1 -310 -4 -323 -12z"/>
<path d="M9088 2414 c-55 -30 -58 -46 -58 -369 0 -249 2 -301 16 -326 28 -55
53 -59 373 -59 159 0 301 4 314 9 14 6 35 20 46 32 20 22 21 32 21 343 0 289
-2 323 -18 342 -34 42 -49 44 -364 44 -248 -1 -308 -3 -330 -16z"/>
<path d="M9892 2410 c-18 -11 -37 -32 -42 -46 -6 -14 -10 -152 -10 -319 0
-167 4 -305 10 -319 5 -14 24 -35 42 -46 32 -19 51 -20 615 -20 338 0 592 4
606 9 14 6 35 20 46 32 20 22 21 32 21 343 0 348 0 346 -57 375 -15 8 -196 11
-610 11 -570 0 -589 -1 -621 -20z"/>
<path d="M11272 2410 c-18 -11 -37 -32 -42 -46 -6 -14 -10 -152 -10 -319 0
-167 4 -305 10 -319 5 -14 24 -35 42 -46 32 -19 47 -20 346 -18 l314 3 29 33
29 32 0 315 0 315 -29 32 -29 33 -314 3 c-299 2 -314 1 -346 -18z"/>
<path d="M12094 2420 c-12 -4 -31 -21 -43 -36 -20 -26 -21 -35 -21 -338 0
-341 0 -340 60 -371 43 -22 607 -22 650 0 60 31 60 30 60 372 l0 313 -29 32
-29 33 -314 2 c-172 1 -323 -2 -334 -7z"/>
<path d="M54 1589 c-11 -6 -28 -23 -37 -39 -15 -25 -17 -66 -17 -335 0 -293 1
-308 20 -336 12 -16 36 -33 58 -39 50 -14 1134 -14 1184 0 20 6 46 22 58 37
19 25 20 38 20 342 0 343 0 341 -57 370 -29 15 -1198 14 -1229 0z"/>
<path d="M1408 1571 l-33 -29 -3 -306 c-2 -259 0 -311 13 -339 29 -61 31 -62
350 -65 313 -4 350 1 384 45 20 25 21 38 21 345 l0 320 -31 29 -31 29 -319 0
-319 0 -32 -29z"/>
<path d="M2211 1571 l-31 -29 0 -324 c0 -324 0 -325 23 -346 41 -39 69 -42
358 -42 298 0 323 3 364 50 19 21 20 36 20 342 l0 320 -33 29 -32 29 -319 0
-319 0 -31 -29z"/>
<path d="M3011 1569 l-31 -31 0 -320 0 -320 28 -28 c39 -39 71 -42 392 -38
297 3 302 4 334 59 14 23 16 69 16 334 l0 307 -34 34 -34 34 -320 0 -320 0
-31 -31z"/>
<path d="M3831 1586 c-49 -27 -50 -40 -51 -372 0 -299 1 -312 20 -337 12 -15
38 -31 58 -37 53 -14 3870 -14 3909 1 15 6 38 20 51 31 22 21 22 22 22 346 l0
324 -29 29 -29 29 -1964 0 c-1610 -1 -1967 -3 -1987 -14z"/>
<path d="M7911 1571 l-31 -29 0 -322 0 -322 28 -28 c39 -39 71 -42 392 -38
302 3 306 4 335 65 13 28 15 80 13 339 l-3 306 -33 29 -32 29 -319 0 -319 0
-31 -29z"/>
<path d="M8735 1588 c-55 -30 -55 -28 -55 -371 l0 -319 28 -28 c39 -39 71 -42
392 -38 243 3 278 5 301 21 47 31 49 48 49 373 l0 306 -34 34 -34 34 -313 0
c-209 -1 -321 -4 -334 -12z"/>
<path d="M9534 1589 c-11 -6 -28 -23 -37 -39 -15 -25 -17 -66 -17 -332 0 -282
1 -305 20 -335 13 -21 31 -35 57 -42 52 -15 722 -15 760 0 15 6 38 20 51 31
22 21 22 22 22 346 l0 324 -31 29 -31 29 -387 -1 c-238 0 -394 -4 -407 -10z"/>
<path d="M10461 1571 l-31 -29 0 -325 0 -325 30 -26 c17 -14 45 -28 63 -31 18
-4 160 -5 317 -3 313 3 316 4 346 66 13 27 15 78 12 338 l-3 306 -33 29 -32
29 -319 0 -319 0 -31 -29z"/>
<path d="M11285 1588 c-55 -30 -55 -28 -55 -371 l0 -319 28 -28 c39 -39 71
-42 392 -38 243 3 278 5 301 21 47 31 49 48 49 373 l0 306 -34 34 -34 34 -313
0 c-209 -1 -321 -4 -334 -12z"/>
<path d="M12084 1589 c-11 -6 -28 -23 -37 -39 -15 -25 -17 -66 -17 -335 0
-293 1 -308 20 -336 12 -16 36 -33 58 -39 49 -13 565 -13 614 0 22 6 46 23 58
39 19 28 20 43 20 336 0 333 -2 349 -57 374 -31 14 -629 14 -659 0z"/>
</g>
</svg>
